<?xml version="1.0" encoding="UTF-8" standalone="no"?>
<svg
   xmlns:dc="http://purl.org/dc/elements/1.1/"
   xmlns:cc="http://creativecommons.org/ns#"
   xmlns:rdf="http://www.w3.org/1999/02/22-rdf-syntax-ns#"
   xmlns:svg="http://www.w3.org/2000/svg"
   xmlns="http://www.w3.org/2000/svg"
   xmlns:xlink="http://www.w3.org/1999/xlink"
   xmlns:sodipodi="http://sodipodi.sourceforge.net/DTD/sodipodi-0.dtd"
   xmlns:inkscape="http://www.inkscape.org/namespaces/inkscape"
   width="99.695732mm"
   height="296.76044mm"
   viewBox="0 0 99.695732 296.76044"
   version="1.1"
   id="svg8"
   inkscape:version="0.92.1 r15371"
   sodipodi:docname="gecko_noClaws_united.svg">
  <defs
     id="defs2">
    <linearGradient
       inkscape:collect="always"
       id="linearGradient853">
      <stop
         style="stop-color:#95b6c6;stop-opacity:1;"
         offset="0"
         id="stop849" />
      <stop
         style="stop-color:#e5d38a;stop-opacity:1"
         offset="1"
         id="stop851" />
    </linearGradient>
    <radialGradient
       inkscape:collect="always"
       xlink:href="#linearGradient853"
       id="radialGradient855"
       cx="99.990952"
       cy="144.75853"
       fx="99.990952"
       fy="144.75853"
       r="40.438782"
       gradientTransform="matrix(2.4751777,-0.17402868,1.4101681,20.056556,-351.47715,-2737.3366)"
       gradientUnits="userSpaceOnUse" />
  </defs>
  <sodipodi:namedview
     id="base"
     pagecolor="#ffffff"
     bordercolor="#666666"
     borderopacity="1.0"
     inkscape:pageopacity="0.0"
     inkscape:pageshadow="2"
     inkscape:zoom="0.43491715"
     inkscape:cx="30.670276"
     inkscape:cy="712.02072"
     inkscape:document-units="mm"
     inkscape:current-layer="layer2"
     showgrid="false"
     inkscape:window-width="1920"
     inkscape:window-height="1001"
     inkscape:window-x="-9"
     inkscape:window-y="-9"
     inkscape:window-maximized="1"
     inkscape:snap-grids="true"
     showguides="false"
     fit-margin-top="0"
     fit-margin-left="0"
     fit-margin-right="0"
     fit-margin-bottom="0" />
  <metadata
     id="metadata5">
    <rdf:RDF>
      <cc:Work
         rdf:about="">
        <dc:format>image/svg+xml</dc:format>
        <dc:type
           rdf:resource="http://purl.org/dc/dcmitype/StillImage" />
        <dc:title></dc:title>
      </cc:Work>
    </rdf:RDF>
  </metadata>
  <g
     inkscape:groupmode="layer"
     id="layer2"
     inkscape:label="body"
     style="display:inline;opacity:1"
     transform="translate(-50.304177,-0.23958925)">
    <g
       id="g7621">
      <path
         style="display:inline;opacity:1;fill:url(#radialGradient855);fill-opacity:1;stroke:#6d6d72;stroke-width:0.32614541px;stroke-linecap:butt;stroke-linejoin:miter;stroke-opacity:1"
         d="m 101.35769,42.054451 c -3.458479,4.577529 -0.6063,10.669681 2.68107,13.272107 3.92155,2.851288 7.00871,13.673884 11.37722,14.981631 2.7871,0.834348 9.50308,1.052372 10.74191,-0.495598 -0.49106,-1.606325 -7.51927,-3.483356 -4.14086,-5.807615 3.27359,-1.984966 3.99042,4.028506 6.6747,4.049586 0.0551,-1.684673 0.16629,-3.118669 -0.71891,-4.55555 -0.99925,-1.534054 -0.19437,-2.909177 1.35507,-3.257112 1.54945,-0.347947 2.05309,1.000637 2.10152,2.18101 -0.0462,2.532102 -0.061,4.973551 0.55663,5.594893 1.20441,-1.506354 2.03169,-2.382256 2.92936,-4.935719 0.70179,-1.791818 2.68513,-2.082791 3.61834,-0.850461 0.93323,1.232331 0.22328,3.063582 -1.29694,3.915484 -2.38611,1.578231 -2.41475,2.836547 -3.4606,4.674552 2.44492,0.67383 4.17492,-0.425888 6.03401,-1.170523 1.49855,-0.481902 2.74717,-0.352978 3.0841,1.287208 0.33695,1.640174 -1.01265,2.65384 -2.85143,2.420951 -2.71456,-0.439474 -3.17929,-0.636961 -4.72868,0.261611 -0.53747,0.360188 -0.75511,0.98953 0.048,1.730725 0.761,0.620209 2.8459,2.078686 5.47998,2.677088 1.64885,0.405723 1.16937,1.896238 0.49414,2.908436 -0.62771,1.013507 -2.13511,0.681276 -3.14062,-0.445228 -2.30857,-2.547191 -6.0287,-4.617555 -7.38252,-4.49838 -2.55155,0.236032 -4.1328,1.561924 -6.57279,3.507467 -2.27972,2.421309 -7.04752,3.765454 -8.1627,2.276926 -1.81142,-1.531439 -4.3898,-3.994436 -6.49794,-5.135044 5.71935,19.383788 5.46744,32.251564 -0.60988,49.963274 3.95708,-2.10909 5.32714,-4.34374 7.81009,-6.56434 2.73961,-2.03731 4.75511,0.41576 6.54963,1.8614 4.04137,4.43854 7.19872,9.13654 10.40204,13.96737 2.92026,0.41829 3.25255,-3.41863 3.23881,-4.93916 -0.0679,-1.64851 1.42391,-1.83448 2.4153,-1.42188 0.97155,0.28012 1.47298,1.32347 0.11428,2.81841 -0.84306,1.37926 -1.12482,2.069 -0.83039,3.16806 2.41052,-1.04843 2.73431,-3.25428 5.68894,-4.86026 1.32867,-0.60278 2.40871,-0.31404 3.18907,1.12131 0.51743,1.0264 -0.41235,2.7588 -2.43024,2.86625 -1.89258,0.19522 -3.04854,2.31077 -4.5233,3.55943 1.89956,1.87057 4.5872,1.58795 7.10493,1.89761 1.69253,0.22853 2.22218,0.59791 2.12726,2.35395 -0.005,1.60112 -2.01732,2.21678 -3.33084,1.55912 -3.08325,-1.87046 -4.7605,-2.35871 -6.68947,-2.54619 -1.20539,0.0712 -1.07159,1.86661 -0.74635,2.53023 1.49712,3.92516 3.15832,4.29176 3.60381,5.88386 0.50386,1.42443 0.0535,3.41981 -1.5208,4.08616 -1.57435,0.66634 -2.69913,-0.51226 -2.83076,-2.04808 -0.1422,-2.56451 -1.98064,-6.6205 -2.82177,-7.09849 -2.29076,-1.48247 -2.73724,-0.22502 -5.72735,2.07225 -1.48397,0.99187 -2.30641,1.33043 -3.90414,3.59442 -1.02963,1.27038 -2.69197,0.86092 -3.83236,-0.0849 -1.1404,-0.94589 -0.69912,-3.08261 0.70361,-3.92846 3.45064,-1.38017 6.51548,-2.33388 8.05003,-4.61526 -2.58098,-6.82157 -5.72382,-5.3666 -8.8504,-8.06069 -0.67339,0.52376 -2.29149,1.99062 -2.98083,3.98044 -3.32762,6.8056 -3.31582,10.44201 -9.08959,14.70317 9.16393,33.81163 -13.605915,69.66976 -16.607834,83.44479 -3.086164,18.71095 -2.235183,32.37646 8.495104,45.29069 4.4488,7.05121 12.30772,12.2454 17.88171,15.66364 C 69.358047,265.70179 89.122393,229.8439 91.766561,190.97806 c 1.042828,-11.4297 -1.442383,-20.84417 -0.900475,-32.08915 -6.41628,-0.19982 -12.703461,-1.25959 -18.533143,-3.88255 1.90971,6.48172 2.185199,9.25625 0.08947,15.40205 1.213369,2.92572 1.52381,3.44982 4.057158,5.02252 1.319793,0.62409 2.317952,2.41933 1.277842,3.51248 -1.04011,1.09315 -1.721554,1.07383 -2.500867,0.59049 -2.827378,-1.96562 -3.466652,-5.0202 -5.945396,-7.44338 -1.442437,-1.16301 -1.969621,-1.09158 -3.63115,-0.61846 -2.171076,2.35564 -2.546494,5.05916 -3.209825,7.61379 -0.367949,1.19772 -1.01719,1.91563 -2.39414,1.63187 -1.376951,-0.28376 -1.518301,-0.97422 -1.642364,-1.6692 -0.158199,-3.42498 2.503139,-5.67845 4.436935,-8.3688 1.16801,-1.88116 0.106873,-3.4985 -1.309195,-3.915 -2.197161,-0.46515 -4.735352,-0.33217 -6.91398,0.004 -1.422769,0.18307 -2.355639,0.0829 -2.878389,-1.61443 -0.522753,-1.69721 0.62696,-2.46356 2.031621,-2.69257 2.173168,-0.27036 4.792641,0.87647 7.103092,1.73286 0.450843,-3.08777 -1.629964,-3.92871 -3.339977,-6.66547 -0.576642,-0.88269 -1.224321,-2.41492 -0.0228,-3.27514 1.201518,-0.86023 2.592612,-0.77227 3.180568,1.37211 0.697993,2.24916 1.807544,3.79226 3.278781,5.56876 -2.690622,-14.76764 -9.171539,-20.89858 13.11617,-20.40931 l 7.166153,0.002 C 69.976007,120.43709 66.8715,88.358319 79.010298,64.65086 c -4.531391,-3.012079 -10.302106,-2.646713 -13.2474,-3.884013 -1.516433,-0.678353 -2.174976,-1.753813 -2.264651,-2.673796 -1.554465,-4.926892 0.193463,-8.79084 -1.705796,-13.591028 -2.635347,1.127429 -3.618864,2.943659 -5.077124,5.27917 -0.621154,0.747793 -1.508547,0.860247 -2.595698,-0.313932 -1.08715,-1.174179 -1.322667,-2.747264 0.197444,-3.152084 2.425686,-0.599452 3.32352,-1.90632 4.741905,-3.182934 0.793176,-0.721221 1.129857,-0.94895 -0.488682,-1.743432 -2.241553,-0.428119 -2.816586,-0.638391 -5.96964,-0.519122 -1.070586,0.0806 -2.396653,-1.238838 -2.0878,-2.574676 0.308853,-1.335836 1.919671,-1.22597 2.466837,-1.107909 3.517081,0.846937 6.389086,3.42022 8.142217,0.585155 -1.627823,-3.499055 -3.713692,-3.289448 -4.390071,-6.687092 -0.310098,-1.083069 0.625217,-2.365335 1.939336,-2.177979 1.60532,0.172796 1.726057,1.215087 2.002323,2.100424 0.533829,2.255711 1.590398,3.965071 3.114113,5.584638 1.752881,-1.870659 2.040363,-2.881562 1.669836,-5.037732 -0.316518,-1.366581 -0.266699,-3.401789 2.677648,-2.435552 2.376505,0.718716 0.779334,3.064569 0.565224,3.567105 -1.180335,1.892614 -2.082477,3.401531 -1.384589,4.835264 0.561675,0.68508 0.843948,0.322922 1.734094,-0.352964 1.180003,-1.239869 1.97379,-2.94368 3.702757,-0.409417 1.739263,1.782692 -1.876689,2.881398 -2.288674,2.91296 -1.242296,0.125017 -1.986678,0.559139 -2.369269,1.217861 0.320285,4.91744 2.065836,5.779592 3.80849,10.92262 1.315548,2.791161 11.262616,2.900376 12.345765,2.770168 2.857903,-3.278256 1.288568,-7.592622 -1.918874,-11.200506 -15.927613,-9.482204 -8.138963,-27.33723 2.57842,-39.6652519 3.957688,-3.76535808 10.062365,-6.4295708 15.926921,4.196426 5.45706,9.8876859 8.33741,30.3576309 0.52256,34.1412329 z"
         id="path8438"
         inkscape:connector-curvature="0"
         sodipodi:nodetypes="ccsccccccccccccccccccccccccccccccccccccccccccccccccccccccccccccccccccccccccccccccccccccccccccccccccccccccccccccscc" />
      <path
         inkscape:connector-curvature="0"
         id="path840"
         d="m 90.7019,88.2645 c -0.101165,0.0037 -0.209122,0.01442 -0.323598,0.03353 -1.004315,0.219872 -1.906228,1.296011 -1.932027,3.287212 -0.01595,-0.0025 -0.0134,3.544116 1.240879,3.305556 0.124974,-0.0238 1.035196,-0.22898 1.283563,-1.493953 0.227723,-1.28774 1.29236,0.873745 1.323053,-2.791123 -0.0079,-0.783402 -0.07439,-2.394398 -1.59187,-2.34122 z m 11.60428,6.55924 c -1.88594,0.0111 -3.879835,0.698754 -4.993466,2.307064 -0.02991,-0.0086 -2.201873,3.284466 0.394943,3.570046 0.258741,0.0285 2.162191,0.20575 3.423883,-0.868143 1.23537,-1.103394 1.98819,1.333303 4.29786,-2.056487 0.49664,-0.779137 1.4412,-2.459385 -2.32441,-2.916411 -0.26214,-0.02527 -0.5294,-0.03771 -0.79881,-0.03612 z m -19.745175,2.79492 c -1.694662,0.06582 0.482371,1.204175 -0.740834,1.227559 -1.459742,0.05843 -1.024868,1.128386 -0.959327,1.276281 0.6578,1.48438 5.289968,2.17375 5.27502,2.15394 2.580038,0.35366 3.288627,-0.53878 2.79963,-1.72175 -1.016798,-2.175901 -3.395849,-2.611701 -4.49342,-2.783536 -0.892804,-0.125895 -1.489993,-0.167668 -1.881069,-0.152494 z m 10.288871,2.004601 c -0.824719,0.0503 -1.555857,0.607829 -1.546645,0.623909 -1.279084,1.02777 -1.131756,3.22947 -0.326781,5.19942 1.53074,3.54556 2.765772,2.80974 3.320695,2.41398 2.370093,-1.86051 -0.05069,-2.77044 0.577123,-3.82631 0.5934,-1.08295 -0.131907,-2.87046 -0.234417,-3.11384 -0.45016,-1.068595 -1.148529,-1.336259 -1.789975,-1.297159 z m 7.883534,14.688989 c -0.40592,-1e-4 -0.787611,0.10661 -1.119204,0.34802 -0.01693,-0.0191 -1.85189,1.41169 -0.316589,2.76265 0.116487,0.10255 0.799833,0.68631 1.531993,0.86118 0.22194,3.51493 1.65694,1.17242 2.04732,2.36085 0.41984,1.16319 1.74795,1.13907 1.93013,1.13138 1.8283,-0.0773 1.66327,-3.51009 1.64027,-3.50423 -0.13188,-1.92072 -1.48911,-2.74085 -2.95441,-2.70697 -0.85545,-0.73571 -1.86654,-1.25268 -2.75951,-1.25288 z m -12.183943,3.75545 c -0.381892,-0.0165 -0.775035,0.006 -1.161893,0.064 -2.793917,0.47751 -2.381123,1.57597 -2.147335,2.08242 0.03666,0.0725 0.07364,0.12895 0.110202,0.19299 -1.095148,0.28777 -2.656429,0.82757 -3.002194,1.60343 -0.03056,0.0686 -0.158514,0.37662 -0.06561,0.63784 0.0726,0.20304 0.277996,0.37772 0.767586,0.38787 1.154975,-10e-4 -1.689273,1.46102 1.984265,0.83336 0.817982,-0.15314 2.557023,-0.53062 3.431534,-2.17038 0.752883,0.32222 1.726988,0.18094 1.884255,0.15567 1.921969,-0.30922 0.880335,-2.44754 0.857404,-2.44058 -0.468437,-0.89277 -1.512531,-1.2971 -2.658213,-1.34653 z m 8.279762,3.23468 c -0.07162,-1.1e-4 -0.14485,0.004 -0.219764,0.01 -1.29717,0.20073 -2.171255,1.91627 -1.547918,5.38989 -0.02241,-0.006 1.15366,6.18829 2.785616,6.0005 0.16259,-0.0186 1.335775,-0.2111 1.256168,-2.3754 -0.115267,-2.20792 2.051769,1.76266 0.88161,-4.63373 -0.278766,-1.41557 -0.93546,-4.38719 -3.155712,-4.39076 z"
         style="display:inline;opacity:0.98000004;fill:#df825d;fill-opacity:1;stroke:none;stroke-width:0.07596622px;stroke-linecap:butt;stroke-linejoin:miter;stroke-opacity:1" />
      <path
         inkscape:connector-curvature="0"
         id="path9"
         d="m 81.220116,14.682408 a 5.066827,6.417802 11.052062 0 0 -5.417074,5.275657 5.066827,6.417802 11.052062 0 0 3.61754,7.375857 5.066827,6.417802 11.052062 0 0 6.277025,-5.180745 5.066827,6.417802 11.052062 0 0 -3.617541,-7.375217 5.066827,6.417802 11.052062 0 0 -0.85995,-0.09556 z m 17.898501,0.117844 a 6.4178427,5.0667951 78.985972 0 0 -1.009648,0.09173 6.4178427,5.0667951 78.985972 0 0 -3.622635,7.373307 6.4178427,5.0667951 78.985972 0 0 6.273186,5.184568 6.4178427,5.0667951 78.985972 0 0 3.62264,-7.37267 6.4178427,5.0667951 78.985972 0 0 -5.263543,-5.276933 z"
         style="display:inline;opacity:0.98000004;fill:#df825d;fill-opacity:1;stroke:none;stroke-width:0.32239547;stroke-opacity:1" />
      <path
         inkscape:connector-curvature="0"
         id="path833"
         d="m 98.566327,16.726968 c -0.171717,0.0039 -0.189334,0.415903 0.07906,1.442176 2.036083,7.75093 2.390053,5.871593 2.039093,3.080545 -0.2362,-1.878389 -1.679316,-4.532949 -2.118141,-4.522721 z m -17.046111,0.02931 c -0.438824,-0.01023 -1.882588,2.644328 -2.118781,4.522717 -0.350957,2.791052 0.0036,4.670386 2.039732,-3.080544 0.26838,-1.026274 0.250763,-1.438172 0.07906,-1.442173 z"
         style="display:inline;opacity:0.98000004;fill:#2e4162;fill-opacity:1;stroke:none;stroke-width:0.42734766px;stroke-linecap:butt;stroke-linejoin:miter;stroke-opacity:1" />
    </g>
  </g>
</svg>
