<?xml version="1.0" encoding="UTF-8" standalone="no"?>
<svg
   xmlns:dc="http://purl.org/dc/elements/1.1/"
   xmlns:cc="http://creativecommons.org/ns#"
   xmlns:rdf="http://www.w3.org/1999/02/22-rdf-syntax-ns#"
   xmlns:svg="http://www.w3.org/2000/svg"
   xmlns="http://www.w3.org/2000/svg"
   xmlns:sodipodi="http://sodipodi.sourceforge.net/DTD/sodipodi-0.dtd"
   xmlns:inkscape="http://www.inkscape.org/namespaces/inkscape"
   width="80.612938mm"
   height="240.49982mm"
   viewBox="0 0 80.612938 240.49982"
   version="1.1"
   id="svg8"
   inkscape:version="0.92.1 r15371"
   sodipodi:docname="gecko_noClaws_combined.svg">
  <defs
     id="defs2" />
  <sodipodi:namedview
     id="base"
     pagecolor="#ffffff"
     bordercolor="#666666"
     borderopacity="1.0"
     inkscape:pageopacity="0.0"
     inkscape:pageshadow="2"
     inkscape:zoom="0.53786856"
     inkscape:cx="138.25824"
     inkscape:cy="744.47539"
     inkscape:document-units="mm"
     inkscape:current-layer="layer2"
     showgrid="false"
     inkscape:window-width="1920"
     inkscape:window-height="1001"
     inkscape:window-x="-9"
     inkscape:window-y="-9"
     inkscape:window-maximized="1"
     inkscape:snap-grids="true"
     showguides="false"
     fit-margin-top="0"
     fit-margin-left="0"
     fit-margin-right="0"
     fit-margin-bottom="0" />
  <metadata
     id="metadata5">
    <rdf:RDF>
      <cc:Work
         rdf:about="">
        <dc:format>image/svg+xml</dc:format>
        <dc:type
           rdf:resource="http://purl.org/dc/dcmitype/StillImage" />
        <dc:title></dc:title>
      </cc:Work>
    </rdf:RDF>
  </metadata>
  <g
     inkscape:groupmode="layer"
     id="layer2"
     inkscape:label="body"
     style="display:inline;opacity:1"
     transform="translate(-59.684547,-24.518408)">
    <path
       id="path833"
       style="display:inline;opacity:0.98000004;fill:#95b6c6;fill-opacity:1;stroke:none;stroke-width:0.34668297px;stroke-linecap:butt;stroke-linejoin:miter;stroke-opacity:1"
       d="m 98.673554,37.76134 c -0.139304,0.0032 -0.153596,0.337399 0.06413,1.169956 1.651766,6.287891 1.938926,4.763291 1.654216,2.499071 -0.19162,-1.52383 -1.362349,-3.677324 -1.718342,-3.669027 z m -13.828545,0.02377 c -0.355993,-0.0083 -1.527238,2.145194 -1.718848,3.669024 -0.284711,2.264222 0.0029,3.78882 1.654719,-2.499071 0.217722,-0.832557 0.20343,-1.166707 0.06413,-1.169953 z m -0.243455,-1.682405 a 4.1104301,5.2063996 11.052062 0 0 -4.394565,4.279842 4.1104301,5.2063996 11.052062 0 0 2.934706,5.983615 4.1104301,5.2063996 11.052062 0 0 5.092194,-4.202845 4.1104301,5.2063996 11.052062 0 0 -2.934705,-5.983097 4.1104301,5.2063996 11.052062 0 0 -0.69763,-0.07751 z m 14.520042,0.0956 a 5.2064327,4.1104042 78.985972 0 0 -0.81907,0.07441 5.2064327,4.1104042 78.985972 0 0 -2.938838,5.981546 5.2064327,4.1104042 78.985972 0 0 5.089092,4.205947 5.2064327,4.1104042 78.985972 0 0 2.93884,-5.981031 5.2064327,4.1104042 78.985972 0 0 -4.270024,-4.280876 z m -6.828006,59.59739 c -0.08207,0.0029 -0.169649,0.01172 -0.262517,0.02721 -0.814745,0.178365 -1.546416,1.051378 -1.567344,2.666727 -0.01294,-0.0016 -0.01087,2.875138 1.006655,2.681608 0.101383,-0.0193 0.839795,-0.18576 1.041281,-1.211956 0.18474,-1.044668 1.048419,0.708816 1.073319,-2.264281 -0.0064,-0.635529 -0.06035,-1.942442 -1.291394,-1.899305 z m 9.4139,5.321135 c -1.52995,0.009 -3.147496,0.56686 -4.050921,1.87159 -0.02426,-0.007 -1.786255,2.6645 0.320395,2.89618 0.209902,0.0231 1.754063,0.16691 2.777606,-0.70428 1.00218,-0.89512 1.61291,1.08163 3.48661,-1.66831 0.4029,-0.63207 1.16916,-1.99516 -1.88567,-2.36592 -0.21265,-0.0205 -0.42946,-0.0306 -0.64802,-0.0293 z m -16.018149,2.26736 c -1.374783,0.0534 0.391321,0.97688 -0.600996,0.99585 -1.184206,0.0474 -0.831418,0.9154 -0.778248,1.03538 0.533636,1.20419 4.291452,1.76344 4.279326,1.74736 2.093039,0.28691 2.667876,-0.43708 2.271181,-1.39676 -0.824871,-1.76518 -2.75486,-2.11872 -3.645257,-2.25812 -0.724281,-0.10213 -1.208747,-0.13602 -1.526006,-0.12371 z m 8.346779,1.62622 c -0.669047,0.0408 -1.262179,0.4931 -1.254705,0.50614 -1.037648,0.83377 -0.91813,2.61989 -0.265099,4.218 1.241803,2.87631 2.243714,2.27938 2.693892,1.95833 1.922722,-1.50933 -0.04112,-2.24751 0.468188,-3.10408 0.481391,-0.87853 -0.10701,-2.32864 -0.190169,-2.52608 -0.365191,-0.86689 -0.931738,-1.08403 -1.452107,-1.05231 z m 6.39547,11.91634 c -0.32929,-8e-5 -0.638949,0.0865 -0.907951,0.28233 -0.01373,-0.0156 -1.502334,1.14523 -0.256831,2.24118 0.0945,0.0832 0.648859,0.55678 1.242822,0.69864 0.18005,2.85146 1.34418,0.95111 1.66088,1.91522 0.34059,0.94363 1.41801,0.92406 1.56579,0.91782 1.48321,-0.0626 1.34933,-2.84754 1.33067,-2.84279 -0.10699,-1.55816 -1.20803,-2.22349 -2.39675,-2.19601 -0.69398,-0.59683 -1.51421,-1.01622 -2.23863,-1.01639 z m -9.884147,3.04659 c -0.309809,-0.0134 -0.628743,0.005 -0.942578,0.0519 -2.266548,0.38737 -1.93167,1.27848 -1.742012,1.68935 0.02974,0.0587 0.05975,0.10461 0.0894,0.15657 -0.888431,0.23344 -2.15501,0.67135 -2.43551,1.30076 -0.02479,0.0556 -0.128593,0.30553 -0.05323,0.51744 0.0589,0.16472 0.225522,0.30643 0.622699,0.31466 0.936966,-10e-4 -1.370412,1.18525 1.609722,0.67606 0.663583,-0.12424 2.074368,-0.43047 2.783809,-1.76071 0.610772,0.2614 1.401008,0.14679 1.52859,0.12628 1.559184,-0.25085 0.714166,-1.98554 0.695563,-1.9799 -0.380016,-0.72425 -1.227031,-1.05226 -2.156457,-1.09236 z m 6.716903,2.62412 c -0.0581,-9e-5 -0.11751,0.003 -0.178284,0.008 -1.05232,0.16284 -1.761416,1.55456 -1.255737,4.37251 -0.01818,-0.005 0.935898,5.02021 2.259812,4.86787 0.1319,-0.0151 1.083638,-0.17125 1.019058,-1.92703 -0.09351,-1.79116 1.664485,1.42994 0.715201,-3.75908 -0.226147,-1.14837 -0.758886,-3.55908 -2.56005,-3.56197 z M 100.969,58.308094 c -2.805674,3.71349 -0.49186,8.655709 2.175,10.766911 3.18133,2.313087 5.68576,11.092845 9.22968,12.153752 2.26103,0.67686 7.70933,0.853728 8.71432,-0.402058 -0.39837,-1.303116 -6.09996,-2.825847 -3.35925,-4.71139 2.65567,-1.610286 3.2372,3.268104 5.41481,3.285206 0.0447,-1.366682 0.1349,-2.529998 -0.58322,-3.695661 -0.81062,-1.244493 -0.15768,-2.360049 1.0993,-2.642316 1.25698,-0.282267 1.66555,0.81176 1.70484,1.76933 -0.0375,2.054152 -0.0495,4.034765 0.45157,4.538828 0.97706,-1.222026 1.64819,-1.932596 2.37642,-4.004075 0.56933,-1.4536 2.1783,-1.689644 2.93536,-0.689925 0.75707,0.999719 0.18113,2.485307 -1.05214,3.176403 -1.93572,1.280333 -1.95895,2.301131 -2.80739,3.7922 1.98343,0.546643 3.38688,-0.345498 4.89505,-0.949581 1.21569,-0.390937 2.22862,-0.286346 2.50196,1.04424 0.27335,1.330586 -0.82151,2.152917 -2.31321,1.963981 -2.20216,-0.356519 -2.57918,-0.516723 -3.83611,0.212229 -0.43601,0.292207 -0.61258,0.802756 0.039,1.40404 0.61736,0.503143 2.30871,1.686322 4.4456,2.17177 1.33762,0.329149 0.94864,1.53831 0.40087,2.359459 -0.50924,0.822194 -1.7321,0.552679 -2.54782,-0.361198 -1.87281,-2.066382 -4.89074,-3.745959 -5.98902,-3.649276 -2.06992,0.191477 -3.3527,1.2671 -5.33212,2.845405 -1.84941,1.964276 -5.71726,3.0547 -6.62194,1.847143 -1.46951,-1.242365 -3.56119,-3.240462 -5.27141,-4.165768 4.63978,15.724967 4.43542,26.163867 -0.49476,40.532367 3.21015,-1.71097 4.3216,-3.52383 6.33587,-5.32527 2.2225,-1.65275 3.85756,0.33728 5.31335,1.51005 3.27854,3.60074 5.83992,7.41196 8.43859,11.33094 2.36904,0.33933 2.63861,-2.77335 2.62746,-4.00687 -0.055,-1.33733 1.15514,-1.4882 1.9594,-1.15348 0.78816,0.22724 1.19494,1.07366 0.0927,2.28641 -0.68392,1.11892 -0.9125,1.67846 -0.67364,2.57007 1.95552,-0.85054 2.21819,-2.64002 4.61512,-3.94286 1.07787,-0.48899 1.95404,-0.25476 2.5871,0.90967 0.41977,0.83265 -0.3345,2.23804 -1.97151,2.32522 -1.53534,0.15837 -2.47311,1.87459 -3.6695,2.88756 1.54101,1.51749 3.72134,1.28822 5.76383,1.53942 1.37305,0.1854 1.80273,0.48505 1.72573,1.90963 -0.004,1.29891 -1.63654,1.79836 -2.70213,1.26482 -2.50126,-1.51739 -3.86192,-1.91349 -5.42679,-2.06558 -0.97786,0.0577 -0.86932,1.51429 -0.60547,2.05263 1.21453,3.18427 2.56217,3.48167 2.92357,4.77325 0.40875,1.15557 0.0435,2.7743 -1.23374,3.31487 -1.27718,0.54056 -2.18965,-0.41557 -2.29643,-1.66149 -0.11536,-2.08044 -1.60678,-5.37084 -2.28914,-5.75861 -1.85838,-1.20264 -2.22058,-0.18254 -4.64627,1.68111 -1.20388,0.80464 -1.87107,1.0793 -3.16722,2.91594 -0.83528,1.03059 -2.18384,0.69843 -3.10898,-0.0689 -0.92514,-0.76734 -0.56715,-2.50073 0.57081,-3.18693 2.7993,-1.11965 5.28564,-1.89334 6.53053,-3.7441 -2.09381,-5.53396 -4.64341,-4.35362 -7.17983,-6.53918 -0.54628,0.42489 -1.85896,1.61488 -2.41818,3.2291 -2.69951,5.521 -2.68994,8.47102 -7.37387,11.92786 7.43418,27.42946 -11.037714,56.51912 -13.473,67.69403 -2.50363,15.17914 -1.813278,26.2652 6.8916,36.74178 3.60906,5.72024 9.98456,9.934 14.50642,12.70703 C 75.009533,239.74049 91.043229,210.651 93.188293,179.12135 c 0.845987,-9.27227 -1.170124,-16.90969 -0.730505,-26.0321 -5.205165,-0.16211 -10.305599,-1.02185 -15.034891,-3.14971 1.549241,5.25826 1.772729,7.50908 0.07258,12.49481 0.984337,2.37348 1.23618,2.79865 3.291343,4.07449 1.070673,0.50629 1.880422,1.96267 1.03664,2.84948 -0.843782,0.88681 -1.396599,0.87114 -2.028812,0.47904 -2.293691,-1.5946 -2.812298,-4.07261 -4.823162,-6.03841 -1.170169,-0.94347 -1.597844,-0.88553 -2.945747,-0.50171 -1.761272,1.911 -2.065827,4.1042 -2.60395,6.17663 -0.298496,0.97164 -0.825189,1.55405 -1.94223,1.32385 -1.117042,-0.23021 -1.231712,-0.79034 -1.332357,-1.35414 -0.128338,-2.77848 2.030655,-4.6066 3.599434,-6.78913 0.947541,-1.52607 0.0867,-2.83813 -1.062075,-3.17601 -1.782433,-0.37735 -3.841524,-0.26947 -5.608921,0.003 -1.154212,0.1485 -1.910997,0.0672 -2.335075,-1.3097 -0.424079,-1.37685 0.508618,-1.99855 1.648139,-2.18434 1.762969,-0.21932 3.888,0.71104 5.762337,1.40578 0.365744,-2.50494 -1.322297,-3.18714 -2.709534,-5.40732 -0.467797,-0.71608 -0.993222,-1.95909 -0.0185,-2.65694 0.974723,-0.69785 2.103239,-0.6265 2.580214,1.11311 0.566243,1.82462 1.466359,3.07645 2.65989,4.51763 -2.182749,-11.97991 -7.440351,-16.95359 10.640406,-16.55667 l 5.813494,0.002 c -11.6062,-16.5095 -14.12471,-42.533185 -4.277191,-61.765711 -3.676061,-2.443528 -8.357515,-2.147123 -10.746866,-3.150878 -1.230196,-0.550313 -1.764435,-1.422768 -1.837183,-2.169096 -1.26105,-3.996911 0.156945,-7.131513 -1.383816,-11.025634 -2.137908,0.914619 -2.935779,2.388025 -4.118783,4.282692 -0.503907,0.606643 -1.223799,0.69787 -2.105743,-0.254675 -0.881944,-0.952545 -1.073005,-2.228701 0.160175,-2.557108 1.967822,-0.486301 2.696184,-1.54649 3.84684,-2.582134 0.643459,-0.585086 0.916588,-0.769829 -0.396441,-1.414348 -1.818445,-0.347308 -2.284936,-0.517891 -4.842831,-0.421134 -0.868506,0.06539 -1.944268,-1.005 -1.693714,-2.088689 0.250555,-1.083688 1.55732,-0.99456 2.001205,-0.898784 2.853209,0.687072 5.183105,2.774631 6.60532,0.474703 -1.32056,-2.838585 -3.012708,-2.668543 -3.561416,-5.424859 -0.251566,-0.878633 0.507203,-1.918862 1.573273,-1.766871 1.302306,0.140179 1.400254,0.985731 1.624373,1.703955 0.433064,1.82993 1.290199,3.216638 2.526302,4.5305 1.422014,-1.517559 1.655231,-2.337648 1.354645,-4.086826 -0.256774,-1.10863 -0.216359,-2.759679 2.172223,-1.975826 1.927924,0.583054 0.632229,2.486112 0.458535,2.893791 -0.957539,1.53537 -1.689397,2.759469 -1.12324,3.922576 0.455656,0.555766 0.684648,0.261968 1.406773,-0.28634 0.95727,-1.005835 1.601224,-2.388041 3.003837,-0.332136 1.410966,1.446196 -1.522451,2.337514 -1.856671,2.363119 -1.007805,0.101419 -1.61168,0.453598 -1.922055,0.987982 0.25983,3.989241 1.675897,4.688655 3.089613,8.860903 1.06723,2.264313 9.136724,2.352915 10.015421,2.247279 2.318455,-2.659462 1.045342,-6.159463 -1.556674,-9.086335 -12.921171,-7.692375 -6.60268,-22.177148 2.091726,-32.178175 3.210649,-3.054622 8.163027,-5.215947 12.920612,3.404323 4.42701,8.02132 6.76366,24.627429 0.42393,27.696851 z"
       inkscape:connector-curvature="0" />
  </g>
</svg>
