<?xml version="1.0" encoding="UTF-8" standalone="no"?>
<!-- Created with Inkscape (http://www.inkscape.org/) -->

<svg
   xmlns:dc="http://purl.org/dc/elements/1.1/"
   xmlns:cc="http://creativecommons.org/ns#"
   xmlns:rdf="http://www.w3.org/1999/02/22-rdf-syntax-ns#"
   xmlns:svg="http://www.w3.org/2000/svg"
   xmlns="http://www.w3.org/2000/svg"
   xmlns:sodipodi="http://sodipodi.sourceforge.net/DTD/sodipodi-0.dtd"
   xmlns:inkscape="http://www.inkscape.org/namespaces/inkscape"
   width="4.9009738mm"
   height="6.500124mm"
   viewBox="0 0 4.9009737 6.5001239"
   version="1.1"
   id="svg8"
   inkscape:version="0.92.2 (5c3e80d, 2017-08-06)"
   sodipodi:docname="Bomb.svg">
  <defs
     id="defs2" />
  <sodipodi:namedview
     id="base"
     pagecolor="#ffffff"
     bordercolor="#666666"
     borderopacity="1.0"
     inkscape:pageopacity="0.0"
     inkscape:pageshadow="2"
     inkscape:zoom="16.140178"
     inkscape:cx="32.808161"
     inkscape:cy="14.827087"
     inkscape:document-units="mm"
     inkscape:current-layer="layer1"
     showgrid="true"
     inkscape:snap-grids="true"
     inkscape:snap-page="false"
     inkscape:snap-others="false"
     inkscape:snap-midpoints="true"
     inkscape:object-nodes="false"
     inkscape:snap-intersection-paths="true"
     inkscape:object-paths="true"
     showguides="true"
     inkscape:snap-to-guides="true"
     inkscape:window-width="1920"
     inkscape:window-height="1018"
     inkscape:window-x="-8"
     inkscape:window-y="-8"
     inkscape:window-maximized="1"
     fit-margin-top="1.1"
     fit-margin-left="0"
     fit-margin-right="0"
     fit-margin-bottom="0">
    <inkscape:grid
       type="xygrid"
       id="grid4514"
       originx="-141.4727"
       originy="-96.785862" />
  </sodipodi:namedview>
  <metadata
     id="metadata5">
    <rdf:RDF>
      <cc:Work
         rdf:about="">
        <dc:format>image/svg+xml</dc:format>
        <dc:type
           rdf:resource="http://purl.org/dc/dcmitype/StillImage" />
        <dc:title></dc:title>
      </cc:Work>
    </rdf:RDF>
  </metadata>
  <g
     inkscape:label="Ebene 1"
     inkscape:groupmode="layer"
     id="layer1"
     transform="translate(-141.47271,-193.71401)">
    <path
       style="fill:#000000;fill-opacity:1;fill-rule:nonzero;stroke:#000000;stroke-width:0.05119397;stroke-miterlimit:4;stroke-dasharray:none;stroke-opacity:1"
       d="m 146.34809,198.09912 a 2.4248902,2.0894252 0 0 1 -2.42489,2.08942 2.4248902,2.0894252 0 0 1 -2.42489,-2.08942 2.4248902,2.0894252 0 0 1 2.42489,-2.08943 2.4248902,2.0894252 0 0 1 2.42489,2.08943 z"
       id="path4518"
       inkscape:connector-curvature="0" />
    <path
       style="fill:#000000;fill-opacity:1;fill-rule:nonzero;stroke:#000000;stroke-width:0.05119397;stroke-miterlimit:4;stroke-dasharray:none;stroke-opacity:1"
       d="m 142.50868,195.84253 h 2.82904 v 1.00293 h -2.82904 z"
       id="rect4520"
       inkscape:connector-curvature="0" />
    <path
       style="fill:none;fill-opacity:1;stroke:#000000;stroke-width:0.05119397;stroke-miterlimit:4;stroke-dasharray:none;stroke-opacity:1"
       d="m 143.62009,194.83961 h 0.60622 v 1.50439 h -0.60622 v -0.59228 z"
       id="rect4524"
       inkscape:connector-curvature="0"
       sodipodi:nodetypes="cccccc" />
    <path
       style="fill:none;stroke:#000000;stroke-width:0.01837866px;stroke-linecap:butt;stroke-linejoin:miter;stroke-opacity:1"
       d="m 143.62009,195.00677 0.60622,-0.16716 z"
       id="path4554"
       inkscape:connector-curvature="0" />
    <path
       style="fill:none;stroke:#000000;stroke-width:0.01837866px;stroke-linecap:butt;stroke-linejoin:miter;stroke-opacity:1"
       d="m 143.62009,195.17393 0.60622,-0.16716 z"
       id="path4556"
       inkscape:connector-curvature="0" />
    <path
       style="fill:none;stroke:#000000;stroke-width:0.01837866px;stroke-linecap:butt;stroke-linejoin:miter;stroke-opacity:1"
       d="m 143.62009,195.34107 0.60622,-0.16714 z"
       id="path4558"
       inkscape:connector-curvature="0" />
    <path
       style="fill:none;stroke:#000000;stroke-width:0.01837866px;stroke-linecap:butt;stroke-linejoin:miter;stroke-opacity:1"
       d="m 143.62009,195.50823 0.60622,-0.16716 z"
       id="path4560"
       inkscape:connector-curvature="0" />
    <path
       style="fill:none;stroke:#000000;stroke-width:0.01837866px;stroke-linecap:butt;stroke-linejoin:miter;stroke-opacity:1"
       d="m 143.62009,195.67538 0.60622,-0.16715 z"
       id="path4562"
       inkscape:connector-curvature="0" />
    <path
       style="fill:#784421;stroke:#000000;stroke-width:0.01837866px;stroke-linecap:butt;stroke-linejoin:miter;stroke-opacity:1"
       d="m 143.62009,195.84253 0.60622,-0.16715 z"
       id="path4564"
       inkscape:connector-curvature="0" />
    <path
       style="fill:#784421;fill-opacity:1;fill-rule:nonzero;stroke:#000000;stroke-width:0.01569856;stroke-miterlimit:4;stroke-dasharray:none;stroke-opacity:1"
       d="m 143.64902,195.08238 v -0.0742 l 0.26162,-0.0721 c 0.24899,-0.0686 0.26222,-0.0721 0.27443,-0.0721 h 0.0128 v 0.0707 0.0707 l -0.27444,0.0757 -0.27443,0.0757 z"
       id="path4582"
       inkscape:connector-curvature="0" />
    <path
       style="fill:#784421;fill-opacity:1;fill-rule:nonzero;stroke:#000000;stroke-width:0.01569856;stroke-miterlimit:4;stroke-dasharray:none;stroke-opacity:1"
       d="m 143.64902,194.92615 v -0.0622 l 0.2262,1.2e-4 0.22619,1.1e-4 -0.22486,0.0621 c -0.12367,0.0341 -0.22546,0.0621 -0.22619,0.0621 -4.8e-4,0 -0.001,-0.028 -0.001,-0.0623 z"
       id="path4584"
       inkscape:connector-curvature="0" />
    <path
       style="fill:#784421;fill-opacity:1;fill-rule:nonzero;stroke:#000000;stroke-width:0.01569856;stroke-miterlimit:4;stroke-dasharray:none;stroke-opacity:1"
       d="m 143.64945,195.24948 4.6e-4,-0.0741 0.27267,-0.0752 c 0.14996,-0.0414 0.27326,-0.0752 0.274,-0.0752 4.8e-4,0 10e-4,0.0331 10e-4,0.0736 v 0.0736 l -0.27446,0.0757 -0.27446,0.0757 z"
       id="path4586"
       inkscape:connector-curvature="0" />
    <path
       style="fill:#784421;fill-opacity:1;fill-rule:nonzero;stroke:#000000;stroke-width:0.01569856;stroke-miterlimit:4;stroke-dasharray:none;stroke-opacity:1"
       d="m 143.64945,195.41644 4.6e-4,-0.0741 0.27267,-0.0752 c 0.14996,-0.0414 0.27326,-0.0752 0.274,-0.0752 4.8e-4,0 10e-4,0.0331 10e-4,0.0736 v 0.0736 l -0.27446,0.0757 -0.27446,0.0757 z"
       id="path4588"
       inkscape:connector-curvature="0" />
    <path
       style="fill:#784421;fill-opacity:1;fill-rule:nonzero;stroke:#000000;stroke-width:0.01569856;stroke-miterlimit:4;stroke-dasharray:none;stroke-opacity:1"
       d="m 143.64902,195.58409 c 0,-0.0579 4.9e-4,-0.0741 0.003,-0.0746 6.7e-4,-3.8e-4 0.12373,-0.0342 0.27223,-0.0751 0.14851,-0.041 0.27101,-0.0747 0.27223,-0.0751 0.002,-4.8e-4 0.003,0.0147 0.003,0.0733 v 0.074 l -0.27223,0.075 c -0.14973,0.0413 -0.27323,0.0753 -0.27444,0.0757 -0.002,4.9e-4 -0.003,-0.0147 -0.003,-0.0733 z"
       id="path4590"
       inkscape:connector-curvature="0" />
    <path
       style="fill:#784421;fill-opacity:1;fill-rule:nonzero;stroke:#000000;stroke-width:0.01569856;stroke-miterlimit:4;stroke-dasharray:none;stroke-opacity:1"
       d="m 143.64902,195.74793 v -0.0709 l 0.27224,-0.075 c 0.14972,-0.0413 0.27322,-0.0753 0.27443,-0.0757 0.002,-4.9e-4 0.003,0.0147 0.003,0.0733 v 0.074 l -0.26337,0.0726 c -0.23525,0.0649 -0.26455,0.0726 -0.27445,0.0726 h -0.0111 z"
       id="path4592"
       inkscape:connector-curvature="0" />
    <path
       style="fill:#784421;fill-opacity:1;fill-rule:nonzero;stroke:#000000;stroke-width:0.01569856;stroke-miterlimit:4;stroke-dasharray:none;stroke-opacity:1"
       d="m 143.96685,195.75647 c 0.12367,-0.0342 0.22626,-0.0625 0.22796,-0.0629 0.003,-6.9e-4 0.003,0.003 0.003,0.0622 v 0.0631 l -0.22795,-1.1e-4 -0.22797,-1.2e-4 z"
       id="path4594"
       inkscape:connector-curvature="0" />
    <path
       style="fill:#cb2300;fill-opacity:1;stroke:#000000;stroke-width:0.05024582px;stroke-linecap:butt;stroke-linejoin:miter;stroke-opacity:1"
       d="m 144.16743,195.38009 0.22463,0.2016 -0.13632,-0.43033 0.48567,0.17155 -0.35322,-0.51463 c 0.248,-0.068 0.472,-0.11527 0.70644,-0.17154 l -0.44613,-0.0722 -0.26031,-0.0421 0.30907,-0.45745 -0.57398,0.22872 -0.17661,-0.40026 -0.0442,0.45745 -0.48567,-0.28591 0.30906,0.57181 -0.70643,0.0572 0.66228,0.2859 -0.52982,0.45745 0.61812,-0.17154 h 0.30907 z"
       id="path4557"
       inkscape:connector-curvature="0"
       sodipodi:nodetypes="cccccccccccccccccccc" />
    <path
       style="fill:#cb6c00;fill-opacity:1;stroke:#000000;stroke-width:0.02902904px;stroke-linecap:butt;stroke-linejoin:miter;stroke-opacity:1"
       d="m 144.04229,195.26469 0.19959,0.096 c -0.0325,-0.0752 -0.0256,-0.0962 -0.0789,-0.26762 0.13689,10e-4 0.30559,0.021 0.30559,0.021 l -0.20664,-0.32164 0.20485,-0.12548 -0.33628,-0.049 -0.053,-0.23094 -0.1647,0.20327 -0.16654,-0.16098 0.0651,0.26977 -0.25723,0.062 0.22926,0.21951 -0.28824,0.28312 0.24824,-0.002 z"
       id="path4559"
       inkscape:connector-curvature="0"
       sodipodi:nodetypes="cccccccccccccccc" />
  </g>
</svg>
